HIERARCHY
ROOT Hip
{
  OFFSET 72.3188 83.819 95.4355
  CHANNELS 6 Xposition Yposition Zposition Zrotation Xrotation Yrotation
  JOINT Chest
  {
    OFFSET 0 14.1721 0
    CHANNELS 3 Zrotation Xrotation Yrotation
    JOINT LeftCollar
    {
      OFFSET 3.38976 27.3334 -0.528179
      CHANNELS 3 Zrotation Xrotation Yrotation
      JOINT LeftShoulder
      {
        OFFSET 8.75651 -0.38405 0.375729
        CHANNELS 3 rotation Xrotation Yrotation
        JOINT LeftElbow
        {
          OFFSET 10.8329 -21.1098 -6.20377
          CHANNELS 3 Zrotation Xrotation Yrotation
          JOINT LeftWrist
          {
            OFFSET 6.67444 -21.7124 7.44145
            CHANNELS 3 rotation Xrotation Yrotation
            End Site
            {
              OFFSET 0.154337 -12.1352 0.463154
            }
          }
        }
      }
    }
    JOINT RightCollar
    {
      OFFSET -3.20896 27.3334 -0.528179
      CHANNELS 3 rotation Xrotation Yrotation
      JOINT RightShoulder
      {
        OFFSET -8.08379 -0.0046533 -0.0763006
        CHANNELS 3 rotation Xrotation Yrotation
        JOINT RightElbow
        {
          OFFSET -9.56336 -20.9129 -5.57094
          CHANNELS 3 rotation Xrotation Yrotation
          JOINT RightWrist
          {
            OFFSET -7.65118 -21.7887 6.16125
            CHANNELS 3 rotation Xrotation Yrotation
            End Site
            {
              OFFSET -0.352577 -13.3655 -1.08635
            }
          }
        }
      }
    }
    JOINT Neck
    {
      OFFSET 7.5099e-015 27.3334 -0.528179
      CHANNELS 3 rotation Xrotation Yrotation
      JOINT Head
      {
        OFFSET -8.18535e-015 4.8193 0.43049
        CHANNELS 3 rotation Xrotation Yrotation
        End Site
        {
          OFFSET 1.32278e-015 21.6034 1.92975
        }
      }
    }
  }
  JOINT RightHip
  {
    OFFSET -10.5521 -2.37517 1.32006
    CHANNELS 3 rotation Xrotation Yrotation
    JOINT RightKnee
    {
      OFFSET -5.39537 -41.4893 -1.87215
      CHANNELS 3 rotation Xrotation Yrotation
      JOINT RightAnkle
      {
        OFFSET -5.28201 -40.6175 -1.83282
        CHANNELS 3 rotation Xrotation Yrotation
        End Site
        {
          OFFSET -2.48959 -0.570625 19.8206
        }
      }
    }
  }
  JOINT LeftHip
  {
    OFFSET 8.40113 -1.21763 0.699941
    CHANNELS 3 rotation Xrotation Yrotation
    JOINT LeftKnee
    {
      OFFSET 5.46332 -43.1232 -2.23758
      CHANNELS 3 rotation Xrotation Yrotation
      JOINT LeftAnkle
      {
        OFFSET 5.1595 -40.7251 -2.11315
        CHANNELS 3 rotation Xrotation Yrotation
        End Site
        {
          OFFSET 0.458637 -1.02516 20.877
        }
      }
    }
  }
}
MOTION
Frames:	16
Frame Time:	0.0333333
-96.3498	86.1295	-133.54	-1.93083	2.14403	19.3978	2.86857	5.57257	-0.223573	-0.335188	-0.381001	-9.49541	-4.54266	-14.7423	-8.16936	-2.27144	6.55802	1.53781	6.86308	8.39034	-0.574421	5.09376	-0.900777	-8.46064	1.52062	-5.93065	2.49224	-4.58208	2.43027	-1.8911	-0.75369	2.70086	0.00626142	3.65E-13	1.44E-13	-1.69E-13	2.21806	5.1152	-0.395296	10.8818	-20.2794	6.08446	1.37276	32.209	-4.70413	-0.74235	-6.48822	0.83749	-7.25029	-2.57709	-0.282611	-0.0793578	10.1187	1.29056	-1.04E-13	-3.31E-14	7.36E-15
-96.3749	86.4138	-133.052	-2.27002	2.01874	20.0075	3.04632	4.22787	-0.166035	-1.80811	-0.115646	-11.4518	-3.60257	-13.6134	-7.40334	-0.891749	7.28066	2.07582	5.10921	7.48263	-0.315078	6.43451	-1.12508	-8.27795	0.0637523	-4.72681	2.14809	-4.61169	2.75761	-1.9926	-1.72481	1.88656	0.140974	3.68E-13	1.43E-13	-1.68E-13	2.88506	6.3573	-0.576066	11.5676	-18.887	5.86121	1.35247	32.0005	-4.66613	-0.669703	-5.81713	0.754464	-6.73424	-2.07798	-0.161606	-0.0692836	9.5815	1.22087	-1.02E-13	-3.22E-14	3.88E-15
-96.2582	86.5352	-132.484	-2.45688	1.74278	20.4728	3.35336	3.53678	-0.142353	-2.85095	0.136323	-12.2018	-2.913	-13.1356	-7.09595	-0.789904	7.54793	2.18376	5.86671	8.04341	-0.430331	6.60424	-1.08555	-7.67247	0.0718603	-3.56426	1.61505	-5.59413	2.9217	-2.22815	-1.46956	0.589015	0.122137	3.71E-13	1.42E-13	-1.67E-13	3.39927	6.25621	-0.67305	11.9228	-17.3115	5.44416	1.35131	31.9884	-4.66394	-0.631887	-5.47106	0.711348	-6.4101	-1.67514	-0.0688022	-0.0759845	9.94278	1.26772	-9.87E-14	-3.06E-14	-9.94E-16
-96.2872	86.2468	-132.001	-2.10378	2.79604	20.9111	1.8935	2.14219	-0.0342273	-1.42571	-0.220551	-11.9011	-3.72404	-13.3081	-7.2059	-1.99631	8.16452	2.16198	7.76582	9.30884	-0.773143	6.06909	-1.02411	-7.94558	1.21499	-3.20936	1.22481	-5.88812	3.40858	-2.4162	0.00633946	0.64584	-0.0186254	3.74E-13	1.40E-13	-1.65E-13	4.65437	5.28276	-0.844366	11.3544	-17.498	5.34421	1.44341	32.9191	-4.83483	-0.802199	-7.04737	0.90609	-7.0106	-2.952	-0.379187	-0.108322	11.4961	1.47029	-9.56E-14	-2.82E-14	1.05E-14
-96.1467	86.2404	-130.94	-1.95593	2.14558	20.991	2.04412	1.6538	-0.0195188	-2.87939	0.143116	-12.6779	-2.35578	-12.6696	-6.80996	-1.91652	8.9407	2.44817	7.91743	9.05884	-0.771281	6.64657	-1.09752	-7.71377	0.9201	-2.6336	1.0095	-6.73047	4.34481	-2.80991	0.397199	-0.0285587	-0.0309702	3.77E-13	1.38E-13	-1.64E-13	4.53746	5.96487	-0.876459	11.3664	-15.2779	4.61949	1.36891	32.1697	-4.69694	-0.826484	-7.27589	0.933978	-6.80276	-3.0111	-0.393757	-0.185226	14.4227	1.85801	-9.23E-14	-2.49E-14	-7.55E-15
-96.1775	85.6786	-130.318	-2.1456	1.92053	21.5797	2.1872	2.12713	-0.0389658	-2.78399	0.118198	-12.5369	-1.94241	-13.3972	-7.25521	-3.34799	9.02491	2.2352	9.78636	9.65456	-1.11161	5.6558	-1.00644	-8.49319	1.71903	-3.06223	1.05111	-5.96393	4.78394	-2.81296	-1.01963	-0.963422	0.0928549	3.80E-13	1.37E-13	-1.62E-13	5.07498	4.15764	-0.822219	11.9427	-15.2076	4.73683	1.52024	33.6639	-4.97424	-0.945958	-8.41418	1.07165	-6.42349	-6.13971	-1.15193	-0.491064	22.0226	2.91746	-8.90E-14	-2.07E-14	-8.53E-15
-96.5644	83.7909	-129.895	-2.42804	1.82745	22.5271	2.32906	4.56179	-0.140454	2.88919	-0.988513	-8.97319	-6.4497	-16.9105	-9.80454	-6.45004	10.117	2.18478	11.0955	9.98332	-1.36609	1.43462	-0.35552	-13.754	5.29595	-6.25189	2.13764	-3.08729	4.36247	-2.20438	-0.016971	-0.295182	0.00887705	3.82E-13	1.35E-13	-1.60E-13	5.09737	-2.04071	-0.274252	12.8489	-16.4235	5.39335	1.93147	37.2407	-5.68027	-1.49366	-13.9498	1.71417	-5.89689	-11.8295	-2.43556	-1.41071	34.4694	4.93956	-8.54E-14	-1.56E-14	-5.36E-15
-96.6254	82.6176	-129.269	-2.62024	1.42425	23.2426	1.99931	4.7118	-0.125778	0.657645	-0.791934	-12.6615	-3.70989	-16.5111	-9.293	-4.57724	10.8013	2.7432	11.1604	9.02808	-1.23556	4.38629	-1.03395	-11.9067	2.33443	-6.12796	2.47675	-3.92196	6.40277	-3.01171	-0.222064	-3.50958	0.0684632	3.85E-13	1.33E-13	-1.57E-13	7.04627	-2.15861	-0.365418	13.5085	-16.816	5.71651	2.25803	39.6877	-6.20349	-1.76984	-16.9574	2.04688	-5.56417	-16.3716	-3.38681	-2.75355	44.6405	7.09494	-8.18E-14	-6.36E-15	-6.48E-16
-96.7415	80.7999	-128.982	-2.98707	0.751212	23.4626	2.60522	6.20656	-0.23177	-2.30481	-0.00843065	-12.5984	0.99638	-19.2029	-10.3664	-6.78975	12.0481	3.00512	12.8541	9.07222	-1.50234	6.61868	-1.47386	-10.9813	-1.18668	-7.33621	3.47447	-2.99618	7.1977	-3.15806	0.296158	-5.56345	0.074382	3.88E-13	1.31E-13	-1.55E-13	7.53998	-3.93269	-0.155708	14.729	-17.6712	6.39335	2.77736	43.0469	-6.98682	-2.18553	-21.7965	2.56242	-5.22791	-22.1629	-4.52009	-5.79337	56.9698	11.0493	-7.79E-14	1.03E-14	2.98E-15
-96.9436	78.4888	-128.985	-3.5338	-0.356545	24.5399	4.16326	9.24682	-0.590595	-1.60669	-0.146654	-10.6997	1.74673	-23.9503	-12.7539	-10.2271	12.0561	2.62479	16.2505	11.3903	-2.59609	4.4813	-1.15197	-13.1166	-1.71781	-10.712	4.93071	0.740102	7.83042	-2.88535	0.0530227	-6.93661	0.0680501	3.91E-13	1.28E-13	-1.52E-13	7.01789	-7.22316	0.261785	16.4857	-19.2173	7.57559	3.86233	48.5945	-8.49459	-2.56448	-26.5836	3.05313	-4.65359	-28.8956	-5.61083	-14.1872	70.4148	20.3981	-7.40E-14	1.08E-14	2.39E-15
-96.7481	77.5725	-128.661	-2.98846	-0.304035	25.0774	3.15097	9.56285	-0.463882	-2.3311	-0.00567498	-12.9606	6.76012	-24.5306	-11.7858	-12.7474	10.1777	1.22987	16.3933	12.6692	-2.91709	6.25	-1.38017	-10.9	-5.55763	-9.79389	4.78779	0.98615	5.46252	-1.8496	2.284	-5.38011	0.0958413	3.93E-13	1.26E-13	-1.49E-13	8.56549	-6.10917	0.151919	16.067	-19.8221	7.68202	4.39619	50.8077	-9.19321	-2.7368	-28.8984	3.28505	-6.01593	-34.0459	-7.27211	-32.2179	78.9101	39.067	-6.98E-14	4.49E-15	-1.58E-14
-96.6942	76.5782	-128.772	-2.84318	-0.225649	25.7494	3.15083	12.1491	-0.604172	3.35088	-1.13253	-9.45129	5.49588	-30.042	-14.5468	-19.8373	9.08213	-0.844652	17.4703	13.6138	-3.39846	2.08042	-0.553929	-14.3378	-4.95353	-12.8279	5.79667	4.63239	2.62916	0.247487	7.99807	-2.59941	-0.110255	3.96E-13	1.24E-13	-1.45E-13	8.82468	-9.90401	0.747108	15.9761	-21.0015	8.12716	5.16043	53.5496	-10.1589	-2.86934	-30.7454	3.46814	-7.03472	-39.6562	-8.96795	-86.2934	82.972	93.7288	-6.56E-14	-4.76E-15	-2.31E-14
-96.0161	77.7555	-128.473	-3.03738	1.41254	26.5162	2.61763	10.4307	-0.424451	3.57598	-1.55695	-12.6212	12.2289	-29.9915	-12.1629	-24.3739	6.55682	-4.1988	14.7956	13.5958	-2.73237	3.6279	-0.932675	-13.2516	-10.9615	-10.4846	5.30225	6.07372	-1.28713	2.48105	12.7046	-1.67948	-0.264906	3.98E-13	1.21E-13	-1.42E-13	10.5096	-8.55307	0.641832	14.8336	-20.6334	7.5693	4.18885	49.9809	-8.92456	-2.78133	-29.5122	3.34607	-8.62727	-43.4751	-10.7737	-105.007	82.4192	112.601	-6.11E-14	-1.32E-14	-2.64E-14
-95.2857	79.7484	-128.121	-3.24504	2.42417	27.0675	2.42281	10.9871	-0.416038	8.95948	-2.52913	-10.575	11.5533	-34.4089	-13.8347	-29.3061	6.08886	-6.46089	12.3086	14.3131	-2.25386	2.57414	-0.772713	-16.1169	-13.0748	-10.7234	5.4678	7.43824	-5.82703	5.01094	19.1836	1.60937	-1.24899	4.01E-13	1.18E-13	-1.38E-13	12.6603	-10.6211	1.24177	13.4898	-19.0315	6.5185	3.16595	45.2273	-7.5434	-2.46305	-25.2634	2.91942	-8.80134	-44.98	-11.2015	-95.409	82.8106	102.919	-5.66E-14	-1.69E-14	-2.64E-14
-93.969	83.3839	-127.281	-2.1483	3.33005	27.5075	0.162257	11.0351	-0.0279806	12.9359	-3.96687	-12.311	12.3943	-34.8507	-13.6159	-31.5108	4.79773	-8.92367	10.0784	16.4319	-1.95408	4.1367	-1.36992	-17.3687	-16.1061	-8.95108	5.39178	6.61133	-9.74334	6.14925	24.2471	4.98232	-2.82776	4.03E-13	1.15E-13	-1.34E-13	17.7148	-9.84769	1.51848	10.5219	-13.6896	3.91327	1.59782	34.389	-5.11233	-1.76277	-16.8785	2.03828	-9.92452	-42.0124	-11.3264	-42.7837	80.8244	49.807	-5.18E-14	-9.54E-15	-2.39E-14
-92.661	87.2178	-126.501	-2.81873	3.43878	27.2175	1.17268	12.1565	-0.224826	17.2631	-3.28471	-7.44163	8.77363	-40.0926	-17.1205	-33.5988	4.41329	-10.5035	8.3154	17.5047	-1.5661	2.04505	-0.82398	-22.8232	-16.5039	-12.8669	5.9323	10.4191	-9.08324	7.90008	27.762	6.99538	-4.10868	4.05E-13	1.12E-13	-1.30E-13	20.6677	-10.8364	2.16483	10.0058	-10.0004	2.66429	0.874667	26.3201	-3.69163	-0.31127	-2.62364	0.348398	-7.77036	-38.3116	-9.14507	-17.7397	73.154	24.1474	-4.69E-14	-6.01E-15	-1.96E-14
